<?xml version="1.0" encoding="UTF-8"?>
<svg id="_レイヤー_2" xmlns="http://www.w3.org/2000/svg" version="1.1" viewBox="0 0 320 320">
  <!-- Generator: Adobe Illustrator 29.2.1, SVG Export Plug-In . SVG Version: 2.1.0 Build 116)  -->
  <defs>
    <style>
      .st0 {
        fill: #fff;
      }
    </style>
  </defs>
  <g id="LINE_LOGO">
    <rect width="320" height="320" rx="72.1" ry="72.1"/>
    <path class="st0" d="M266.7,144.9c0-47.7-47.9-86.6-106.7-86.6s-106.7,38.8-106.7,86.6,38,78.6,89.2,85.4c3.5.8,8.2,2.3,9.4,5.3,1.1,2.7.7,6.9.4,9.6,0,0-1.2,7.5-1.5,9.1-.5,2.7-2.1,10.6,9.2,5.8,11.4-4.8,61.4-36.2,83.8-61.9h0c15.5-17,22.9-34.2,22.9-53.3h0Z"/>
    <path d="M231.2,172.5h-30c-1.1,0-2-.9-2-2h0v-46.5h0c0-1.2.9-2.1,2-2.1h30c1.1,0,2,.9,2,2v7.6c0,1.1-.9,2-2,2h-20.4v7.9h20.4c1.1,0,2,.9,2,2v7.6c0,1.1-.9,2-2,2h-20.4v7.9h20.4c1.1,0,2,.9,2,2v7.6c0,1.1-.9,2-2,2h0Z"/>
    <path d="M120.3,172.5c1.1,0,2-.9,2-2v-7.6c0-1.1-.9-2-2-2h-20.4v-37c0-1.1-.9-2-2-2h-7.6c-1.1,0-2,.9-2,2v46.5h0c0,1.2.9,2.1,2,2.1h30Z"/>
    <rect x="128.7" y="121.8" width="11.6" height="50.6" rx="2" ry="2"/>
    <path d="M189.8,121.8h-7.6c-1.1,0-2,.9-2,2v27.6l-21.3-28.8c0,0-.1-.1-.2-.2h0c0,0,0,0-.1-.1,0,0,0,0,0,0,0,0,0,0-.1,0,0,0,0,0,0,0,0,0,0,0-.1,0s0,0,0,0c0,0,0,0-.1,0h0s0,0-.1,0c0,0,0,0,0,0,0,0,0,0-.1,0,0,0,0,0,0,0,0,0,0,0-.1,0,0,0,0,0,0,0,0,0,0,0-.1,0h-7.7c-1.1,0-2,.9-2,2v46.6c0,1.1.9,2,2,2h7.6c1.1,0,2-.9,2-2v-27.6l21.3,28.8c.1.2.3.4.5.5,0,0,0,0,0,0,0,0,0,0,.1,0,0,0,0,0,0,0,0,0,0,0,.1,0s0,0,.1,0c0,0,0,0,0,0,0,0,0,0,.1,0h0c.2,0,.4,0,.5,0h7.5c1.1,0,2-.9,2-2v-46.6c0-1.1-.9-2-2-2h0Z"/>
  </g>
</svg>