<?xml version="1.0" encoding="UTF-8"?><svg id="_レイヤー_2" xmlns="http://www.w3.org/2000/svg" viewBox="0 0 90.26 91.8"><defs><style>.cls-1{fill:none;stroke:#d09b56;stroke-linecap:round;stroke-miterlimit:10;stroke-width:3px;}</style></defs><g id="_レイヤー_1-2"><path class="cls-1" d="M25.73,63.28l-11.58-13.99c-1.6-1.93-2.55-4.36-2.43-6.87.13-2.95,1.66-4.51,5.05-4.21,2.1.19,4.07,1.09,5.69,2.43,5.83,4.81,22.68,19.13,22.67,23.75-.02,5.59,0,25.16,0,25.16"/><path class="cls-1" d="M23.12,90.3v-4.47c0-1.02-.36-2.01-1.03-2.78-2.88-3.34-10.71-11.44-18.86-19.86-1.11-1.14-1.73-2.67-1.73-4.26V17.93c0-2.15.98-4.24,2.76-5.43,1.66-1.11,3.32-1.13,4.92-.2,1.98,1.15,3.14,3.33,3.28,5.62l1.15,19.46"/><path class="cls-1" d="M25.73,63.28l-11.58-13.99c-1.6-1.93-2.55-4.36-2.43-6.87.13-2.95,1.66-4.51,5.05-4.21,2.1.19,4.07,1.09,5.69,2.43,5.83,4.81,22.68,19.13,22.67,23.75-.02,5.59,0,25.16,0,25.16"/><path class="cls-1" d="M67.14,90.3v-4.47c0-1.02.36-2.01,1.03-2.78,2.88-3.34,10.71-11.44,18.86-19.86,1.11-1.14,1.73-2.67,1.73-4.26V17.93c0-2.15-.98-4.24-2.76-5.43-1.66-1.11-3.32-1.13-4.92-.2-1.98,1.15-3.14,3.33-3.28,5.62l-1.15,19.46"/><path class="cls-1" d="M64.53,63.28l11.58-13.99c1.6-1.93,2.55-4.36,2.43-6.87-.13-2.95-1.66-4.51-5.05-4.21-2.1.19-4.07,1.09-5.69,2.43-5.83,4.81-22.68,19.13-22.67,23.75.02,5.59,0,25.16,0,25.16"/><path class="cls-1" d="M44.8,45.61c-17.96-11.78-26.66-26.59-22.91-35.14,1.55-3.54,6.36-8.59,12.87-8.94,5.17-.28,9.04,2.55,10.35,3.61,1.32-1.06,5.18-3.89,10.35-3.61,6.51.35,11.32,5.41,12.87,8.94,3.75,8.56-4.94,23.37-22.91,35.14l-.3.16-.33-.16Z"/></g></svg>