<?xml version="1.0" encoding="UTF-8"?>
<svg id="_レイヤー_2" xmlns="http://www.w3.org/2000/svg" version="1.1" viewBox="0 0 243.1 250">
  <!-- Generator: Adobe Illustrator 29.2.1, SVG Export Plug-In . SVG Version: 2.1.0 Build 116)  -->
  <defs>
    <style>
      .st0 {
        fill: #fff;
      }
    </style>
  </defs>
  <g id="_レイヤー_1-2">
    <path class="st0" d="M55.2,36.4V14.1c0-7.8,6.3-14.1,14.2-14.1s14.1,6.3,14.1,14.1v22.3c0,7.8-6.3,14.2-14.1,14.2s-14.2-6.3-14.2-14.2ZM173.7,50.6c7.8,0,14.1-6.3,14.1-14.2V14.1c0-7.8-6.3-14.1-14.1-14.1s-14.1,6.3-14.1,14.1v22.3c0,7.8,6.3,14.2,14.1,14.2ZM243.1,54.2v161.7c0,18.8-15.2,34.1-34.1,34.1H34.1c-18.8,0-34.1-15.2-34.1-34.1V54.2C0,35.4,15.2,20.2,34.1,20.2h8.8v16.2c0,14.7,11.9,26.6,26.6,26.6s26.6-11.9,26.6-26.6v-16.2h51.2v16.2c0,14.7,11.9,26.6,26.6,26.6s26.6-11.9,26.6-26.6v-16.2h8.8c18.8,0,34.1,15.3,34.1,34.1h0ZM226.5,75.8H16.6v140.2c0,9.6,7.9,17.5,17.5,17.5h175c9.6,0,17.5-7.9,17.5-17.5V75.8h0ZM113.1,187.5h-30.7v30.7h30.7v-30.7ZM113.1,139.9h-30.7v30.7h30.7v-30.7ZM65.5,187.5h-30.7v30.7h30.7v-30.7ZM65.5,139.9h-30.7v30.7h30.7v-30.7ZM208.2,92.4h-30.7v30.7h30.7v-30.7ZM160.7,92.4h-30.7v30.7h30.7v-30.7ZM160.7,139.9h-30.7v30.7h30.7v-30.7ZM208.2,187.5h-30.7v30.7h30.7v-30.7ZM208.2,139.9h-30.7v30.7h30.7v-30.7ZM160.7,187.5h-30.7v30.7h30.7v-30.7ZM113.1,92.4h-30.7v30.7h30.7v-30.7ZM65.6,92.4h-30.7v30.7h30.7v-30.7Z"/>
  </g>
</svg>