<svg xmlns="http://www.w3.org/2000/svg" xmlns:xlink="http://www.w3.org/1999/xlink" width="213" height="307" viewBox="0 0 213 307">
  <defs>
    <clipPath id="clip-path">
      <rect id="長方形_19" data-name="長方形 19" width="213" height="307" transform="translate(0.111 -0.12)" fill="none" stroke="#707070" stroke-width="1"/>
    </clipPath>
  </defs>
  <g id="グループ_52" data-name="グループ 52" transform="translate(-0.111 0.12)" clip-path="url(#clip-path)">
    <path id="パス_10" data-name="パス 10" d="M32.171,343.027a10.707,10.707,0,0,0,2.725-.165c3.142-.741,4.89-4.006,6.243-6.933q1.9-4.1,3.792-8.2a4.316,4.316,0,0,0,.58-2.363A3.572,3.572,0,0,0,42.4,322.62c-8.394-.994-17.514-2.293-25.285-4.62s-15.508-8-16.5-16.041a27.67,27.67,0,0,1,.782-8.712c5.6-28.256,12.7-57.015,18.3-85.271,1.146-5.778,2.3-11.6,4.592-17.031s5.814-10.5,10.8-13.648" transform="translate(-0.117 -41.631)" fill="none" stroke="#fff" stroke-linecap="round" stroke-linejoin="round" stroke-width="1"/>
    <path id="パス_11" data-name="パス 11" d="M177.433,141.759c-4.4-1.452-7.89-4.977-10.187-9s-3.538-8.553-4.652-13.051c-1.323-5.347-2.481-11.083-.6-16.263.247-.682.855-1.482,1.52-1.192.449.2.561.771.6,1.26.656,9.3-4.957,18.725-2.153,27.612,1.02,4.519,5.222,9.713,9.026,12.529s7.942,5.164,11.666,8.084c1.186.93,6.394,5.454,5.876,7.455-.813,3.142-19.6,5.908-25.954,9.045-.916.452-1.927,1.205-1.817,2.22a2.235,2.235,0,0,0,1.1,1.486c3.594,2.423,8.515.538,12.735,1.529a1.936,1.936,0,0,1,1.434.924,2.126,2.126,0,0,1-.182,1.576c-1.514,3.837-6.9,12.56-5.06,14.15l37.315,23.6a31.631,31.631,0,0,1,7.387,5.77c-7.679-3.146-14.7-7.672-21.828-11.913a364.391,364.391,0,0,0-38-20.05c-.983-.432-2.482-.653-2.817.367L126,245.679c5.369-24.775,15.449-56.141,21.679-78.962q3.351-13.273,6.7-26.547a32.74,32.74,0,0,0,1.176-6.444c.151-3.221-.649-6.4-1.128-9.586a96.988,96.988,0,0,1-.8-11.6l-8.443,10.415c-1.981,2.443-4.409,5.109-7.557,5.079" transform="translate(-29.503 -23.995)" fill="none" stroke="#fff" stroke-linecap="round" stroke-linejoin="round" stroke-width="1"/>
    <path id="パス_12" data-name="パス 12" d="M182.879,381.87c-3.969,5.043-10.31,6.5-17.693,8.121a21.193,21.193,0,0,1-3.8.574,25.751,25.751,0,0,1-7.913-1.408l-8.81-2.543c-5.593-1.615-11.607-3.478-15.078-7.377,2.386-.431,4.983.147,7.432.761q5.284,1.325,10.485,2.907c.042.417-.667.526-1.2.487a49.092,49.092,0,0,1-13.149-3.353,25.228,25.228,0,0,1-5.377-2.491,6.465,6.465,0,0,1-3.081-4.134.768.768,0,0,1,.155-.677c.345-.336,1.055-.178,1.608-.008a43.262,43.262,0,0,0,13.287,1.924,12.885,12.885,0,0,0,3.142-.34,11.505,11.505,0,0,0,4.084-2.345c.473-.37.978-.881.682-1.4a1.659,1.659,0,0,0-.728-.569,13.727,13.727,0,0,0-6.5-.941,20.647,20.647,0,0,1-6.582-.395c-2.129-.629-4.063-2.345-3.719-4.032l13.312-2.611a22.984,22.984,0,0,1,3.708-.517,25.142,25.142,0,0,1,4.206.344l11.351,1.569a34.394,34.394,0,0,1,7.635,2.392c.693.289,2.448.908,3.141,1.2.529.22,1.149.574,1.129,1.145-.015.45-.44.774-.856.946-1.274.529-7.187-.42-8.2-1.787a1.087,1.087,0,0,1-.25-.585,1.26,1.26,0,0,1,.339-.774,17.484,17.484,0,0,1,6.045-4.67c2.287-1.168,4.7-2.074,7-3.212h.1c3.142-.11,6.438,2.341,8.325,4.853a29.461,29.461,0,0,1,3.914,8.524c1.5,4.478,3.01,12.558,8.556,13.864a10.679,10.679,0,0,0,2.725.165" transform="translate(-29.195 -84.076)" fill="none" stroke="#fff" stroke-linecap="round" stroke-linejoin="round" stroke-width="1"/>
    <path id="パス_13" data-name="パス 13" d="M95.9,287.839s-14.973-7.781-22.129-11.7c3.758-7.5,7.51-15.543,11.654-22.836-1.584,2.544-4.5,7.073-6.089,9.616-1.663,2.672-5.662,5.875-7.774,6.184a8.654,8.654,0,0,1-3.733-.37c-4.3-1.3-8.422-4.18-12.863-3.474-.558.089-1.248.433-1.148.989a1.035,1.035,0,0,0,.388.559,6.682,6.682,0,0,0,3.57,1.768,16.343,16.343,0,0,0,8.445-.67c1.077-.473,3.655-1.517,7.888-9.412,2.178-4.062,3.814-11.357,3.677-12.372a4.249,4.249,0,0,0-1.4-2.609,3.336,3.336,0,0,0-3.518-.645,2.327,2.327,0,0,0-1.064,3.173,3.708,3.708,0,0,0,2.378,1.309c3.151.76,7.31-.916,10.142,1.726.516.482,6.617,9.722,7.495,9.567a2.452,2.452,0,0,0,1.916-1.663,4.441,4.441,0,0,0-.53-2.911c-.763-1.761-1.835-4.194-2.6-5.955-1.524-3.517-3.846-5.521-6.839-7.917-.872-.7-1.789-1.34-2.708-1.976a19.34,19.34,0,0,0-3.613-2.123c-.85-.347-2.628-1.385-3.553-1.011a1.241,1.241,0,0,0-.267,1.89,3.33,3.33,0,0,0,1.975.926,29.64,29.64,0,0,0,5.909.594c2.683,0,5.516-.339,7.92.849,1.4.689,7.208,8.962,9.1,11.043a2.223,2.223,0,0,0,1.971-2.16,6.465,6.465,0,0,0-.82-3.078c-.833-1.829-1.667-3.658-2.556-5.46-1.576-3.193-3.382-6.368-6.079-8.694s-8.047-3.844-9.89-2.736c-1.04.625,1.04,2.462,2.246,2.6a35.641,35.641,0,0,0,3.848.072c2.973,0,5.824.589,7.912,2.7s3.778,5.14,6.18,6.891c.708.516,1.869.885,2.321.134a1.6,1.6,0,0,0,.165-.793c.119-5.037-4.347-11.5-7.113-13.47-2.546-1.81-8.021-3.321-13.458-4.17a17.553,17.553,0,0,0-8.227,1.161c-3.827,1.885-6.23,5.757-8.131,9.573s-3.586,7.885-6.669,10.832c-3.227,3.084-6.286,3.735-9.882,6.382a6.177,6.177,0,0,0-2.036,2.19,7.205,7.205,0,0,0-.46,3.149,119.835,119.835,0,0,0,1.571,20.4c.432,2.26,1.612,4.991,3.915,4.987,2.112,0,3.351-2.358,3.886-4.4,1.96-7.48.986-15.384-.227-23.02-.407-2.561-.927-5.3-2.766-7.126-1.575-1.566-3.846-2.185-6.035-2.565a79.7,79.7,0,0,0-13.52-.818c-5.737-.009-13.946-.247-16.421,3.808-2.9,4.75,21.646,1.269,23.783-.138a9.5,9.5,0,0,0,4.092-6.275c.07-5.289-20.657-16.411-24.564-11.07-1.972,2.7,4.846,4.407,8.041,5.385,2.937.9,12.321,3.691,15.319,2.337,2.855-1.29,2.039-4.529,1.817-7.653l-6.112-86.093c-.214-3.025-.217-6.2,1.4-8.893a4.86,4.86,0,0,1,1.85-1.755c.443-.239,1.95-.826,1.95-.826l12.357-4.265c6.282-2.169,12.614-4.359,18.32-7.761a26.277,26.277,0,0,0,6.72-5.406c5.134-6.062,5.686-14.87,4.053-22.643s-5.14-15.019-7.327-22.655a10.385,10.385,0,0,1-.459-5.581c.758-2.721,3.379-4.421,5.168-6.607A22.773,22.773,0,0,0,88.329,49.1q2.234-7.131,3.779-14.454c.561-2.658,1.119-5.471,2.923-7.5,3.58-4.032,9.966-3.115,15.212-4.371,2.569-.615,5.34-2.335,5.424-4.972a4.856,4.856,0,0,0-3.315-4.374,10.9,10.9,0,0,0-5.785-.19,30.513,30.513,0,0,0-16.886,9.318c-5.778,6.3-8.625,14.724-13.6,21.678S64.121,56.5,56.639,60.651a40.359,40.359,0,0,0-7.666,4.855c-2.255,2.025-3.986,4.877-3.866,7.9.157,3.954,3.263,7.05,5.859,10.039s4.966,7.071,3.4,10.707c-2.033,4.74-8.762,5.164-11.206,10.228-2.209,4.577.219,8.966,1.67,13.116a14.557,14.557,0,0,1,.7,6.54,7.946,7.946,0,0,1-1.955,4.653,4.242,4.242,0,0,1-4.694,1.072c-1.573-.76-2.3-2.612-2.508-4.346a12.382,12.382,0,0,1,2.232-8.642c5.72-7.919,20.244-7.556,26.79-14.808,2.872-3.181,4.054-7.5,5.085-11.655.584-2.358,1.638-5.188,4.048-5.5,2.794-.367,4.544,3.017,4.772,5.824a19.178,19.178,0,0,1-3.289,12.317c-4.654,6.76-13,9.752-19.547,14.7-2.233,1.687-4.352,3.736-5.258,6.383s-.252,5.991,2.115,7.486c1.683,1.063,3.829,1.011,5.8.746a36.746,36.746,0,0,0,25.233-16.247A43.786,43.786,0,0,0,90.823,86.44c-.783-5.995-2.686-11.779-4.007-17.679a92.727,92.727,0,0,1-1.58-31.231,13.6,13.6,0,0,1,1.807-6.084c1.594-2.361,4.445-3.593,7.26-4.044a76.755,76.755,0,0,1,8.535-.377c6.632-.313,13.976-3.317,16.044-9.622,2.261-6.892-3.435-14.543-10.467-16.344s-14.524.963-20.468,5.127A46.1,46.1,0,0,0,71.722,26.624c-2.209,5.5-3.337,11.388-5.634,16.849a42.553,42.553,0,0,1-14.1,17.8c-3.585,2.611-8.073,5.515-7.945,9.947.162,5.6,7.913,9.361,6.8,14.849-.959,4.711-7.292,6.337-9.412,10.533-2.8,4.153-3.324,8.469-.058,12.268,1.635,1.9,4.3,3.885,5.447,6.112,1.517,2.938.137,6.468.124,9.775a11.754,11.754,0,0,0,3.917,8.731c2.465,2.178,7.778,2.876,11.666,4.076l11.986,3.71c1.5.464,3.339,1.448,3.062,2.99a2.647,2.647,0,0,1-1.263,1.613c-4.445,2.949-10.6-.181-15.692,1.426a2.935,2.935,0,0,0-1.519.925,3.307,3.307,0,0,0-.46,2.045c.092,9.367,5.222,17.847,10.187,25.792l29.94,47.9c1.386-1.358,1.441-3.536,1.379-5.475-1.023-32.2-8.9-64.136-6.868-96.284.783-12.377,1.924-28.2-2.033-39.956a36.093,36.093,0,0,0,12.486,13.224c2.589,1.521,4.548,2.521,7.55,2.418,6.592-.226,12.693-7.47,16.451-12.886,4.892-8.7,6.355-15.278,7.136-24.2.853-9.742-.6-14.242-2.825-20.379-2.111-5.819-3.986-10.224-9-14.409-1.231-1.027-3.784-1.775-4.089-.2-.751,3.877,5.47,9.654,10.429,13.7s12.34,9.424,13.387,16.482c1.083,7.448,0,12.97,1.083,18.472S149.4,86.12,154.193,89.03c2.022,1.227,4.317,1.942,6.367,3.121s3.94,3.016,4.264,5.357c.467,3.381-2.376,6.263-3.273,9.557a8.889,8.889,0,0,0,3.744,9.59c5.271,3.311,13.623.824,17.26,5.874a6.372,6.372,0,0,1-7.54,9.636,15.618,15.618,0,0,1-10.781-8.3,10.642,10.642,0,0,1,.208-9.848c1.663-2.963,4.625-4.913,7.141-7.2s4.779-5.436,4.267-8.794c-.519-3.413-3.641-5.709-6.386-7.8s-5.608-4.952-5.247-8.384c.195-1.853,1.317-3.459,1.97-5.2,2.1-5.607-.842-11.815-4.377-16.649s-9.028-11.988-10.218-17.856c-1.4-6.221-4.5-11.574-6.749-17.361-1.96-5.042-3.979-10.185-7.458-14.328s-8.746-7.184-14.127-6.591a3.782,3.782,0,0,0-1.467.4,3.151,3.151,0,0,0-1.248,3.3A12.953,12.953,0,0,0,121.989,11a9.519,9.519,0,0,1-.038,9.295c-.991,1.8-3.075,2.759-4.169,4.512-1.284,2.058-.571,4.767.518,6.934,2.818,5.607,7.74,9.807,11.8,14.59s7.463,10.924,6.228,17.075c-1.29,10.379-6.439,22.849-6.226,31.412s4.188,13.538,10.163,19.681c7.146,7.348,22.439,9.187,32.215,12.957a55.789,55.789,0,0,1,8.083,3.571c1.846,1.145,4.322,2.716,5.193,4.155-1.934-.348-2.863.041-4.355,1.318-5.484,4.691-8.664,23.388-8.644,33.052.006,3.191.132,6.583,1.917,9.228,5.158-12.143.7-27,6.816-38.687a7.336,7.336,0,0,1,2.625-3.113c1.194-.685,3.094-.48,4.555,2.587a46.161,46.161,0,0,1,2.431,5.84c3.822,10.863,5.932,22.236,8.617,33.435a330.715,330.715,0,0,0,9.94,33.526c3.874,10.915,7.449,23.4,7.28,33.665.005,7.725-3.654,12.574-6.988,16.612-10.907,13.212-24.006,24.418-37.032,35.551-2.229,1.905-4.566,3.867-7.408,4.592s-6.336-.2-7.6-2.847c.427-1.556,2.4-2.1,4-1.934s3.227.756,4.8.383c2.25-.533,3.638-2.954,3.742-5.262a16.15,16.15,0,0,0-1.653-6.673c-1.8-4.415-3.744-9.035-7.5-11.976s-9.9-3.4-12.89.313c1.338-3.433,18.737-21.959,27.709-27.708,3.655-2.342,15.346-8.508,12.084-4.366a15.111,15.111,0,0,1-4.5,3.166,5.622,5.622,0,0,1-5.293-.385c-1.562-1.136-2.138-3.166-2.543-5.053-.882-4.1-.492-7.643-.709-11.831,1.179-10.922,6.131-23.122,14.2-30.589-11.6,24.169-21.593,43.614-34.856,66.911" transform="translate(-4.219 -0.117)" fill="none" stroke="#fff" stroke-linecap="round" stroke-linejoin="round" stroke-width="1"/>
  </g>
</svg>
