<?xml version="1.0" encoding="UTF-8"?><svg id="b" xmlns="http://www.w3.org/2000/svg" viewBox="0 0 377.6 72.3"><g id="c"><path d="M24.15,0v6.45H6.97v41.77H0V0h24.15Z" fill="#fff"/><path d="M353.45,70.2v-6.45h17.17V21.97h6.97v48.22h-24.15Z" fill="#fff"/><polygon points="65.58 69.02 65.58 25.91 41 41.73 36.7 35.02 83.98 4.54 88.28 11.25 73.5 20.79 73.5 69.02 65.58 69.02" fill="#fff"/><path d="M123.47,66.18l.56-.82c5.88-8.65,10.32-15.79,12.84-20.67,1.41-2.83,2.13-5.69,2.14-8.52h-29.1v-8h29.1v-13.34l-20.46,3.42-1.2-7.82,40.73-6.93,1.3,7.9-12.45,2.05v14.73h23.02v8h-23.05c-.19,4.85-1.31,9.25-3.31,13.11-3.46,6.6-7.74,13.6-12.74,20.81l-.57.82-6.81-4.74Z" fill="#fff"/><path d="M209.32,64.98l37.42-54.98,6.52,4.51-37.42,54.98-6.52-4.51ZM261.2,40.6v-14.07h5.82v14.07h-5.82ZM250.92,40.6v-14.07h5.83v14.07h-5.83ZM210.53,34.3V10.55h7.92v23.75h-7.92ZM193.5,34.3V10.55h7.92v23.75h-7.92Z" fill="#fff"/><path d="M306.06,67.23l.6-.79c5.63-7.46,9.66-13.34,12.3-17.97,2.03-3.62,3.02-7.46,3.02-11.73v-11.3h-22.58l-7.95,13.27-6.81-4.1L304.84.36l7.06,4.08-7.79,13.08h42.36v7.92h-16.42v11.38c0,3.41-.37,6.47-1.08,9.11-.81,2.6-2.13,5.43-3.93,8.43-1.19,2.01-4.95,7.44-11.82,17.09l-.6.85-6.56-5.06Z" fill="#fff"/></g></svg>