<?xml version="1.0" encoding="UTF-8"?><svg id="b" xmlns="http://www.w3.org/2000/svg" viewBox="0 0 309.78 71.93"><g id="c"><polygon points="28.88 68.66 28.88 25.54 4.31 41.37 0 34.66 47.28 4.18 51.58 10.88 36.8 20.43 36.8 68.66 28.88 68.66"/><path d="M86.77,65.81l.56-.82c5.88-8.65,10.32-15.79,12.84-20.67,1.41-2.83,2.13-5.69,2.14-8.52h-29.1v-8h29.1v-13.34l-20.46,3.42-1.2-7.82,40.73-6.93,1.3,7.9-12.45,2.05v14.73h23.02v8h-23.05c-.19,4.85-1.31,9.25-3.31,13.11-3.46,6.6-7.74,13.6-12.74,20.81l-.57.82-6.81-4.74Z"/><path d="M172.62,64.62l37.42-54.98,6.52,4.51-37.42,54.98-6.52-4.51ZM224.5,40.23v-14.07h5.82v14.07h-5.82ZM214.23,40.23v-14.07h5.83v14.07h-5.83ZM173.83,33.93V10.19h7.92v23.75h-7.92ZM156.81,33.93V10.19h7.92v23.75h-7.92Z"/><path d="M269.36,66.87l.6-.79c5.63-7.46,9.66-13.34,12.3-17.97,2.03-3.62,3.02-7.46,3.02-11.73v-11.3h-22.58l-7.95,13.27-6.81-4.1L268.15,0l7.06,4.08-7.79,13.08h42.36v7.92h-16.42v11.38c0,3.41-.37,6.47-1.08,9.11-.81,2.6-2.13,5.43-3.93,8.43-1.19,2.01-4.95,7.44-11.82,17.09l-.6.85-6.56-5.06Z"/></g></svg>